HIERARCHY
ROOT Hips
{
	OFFSET -10.056300 7.733760 -472.550000
	CHANNELS 6 Xposition Yposition Zposition Zrotation Yrotation Xrotation 
	JOINT Spine
	{
		OFFSET 0.000000 0.000000 0.000000
		CHANNELS 3 Zrotation Yrotation Xrotation
		JOINT Spine1
		{
			OFFSET 19.000000 0.000000 0.000000
			CHANNELS 3 Zrotation Yrotation Xrotation
			JOINT Neck
			{
				OFFSET 22.500000 0.600000 0.000000
				CHANNELS 3 Zrotation Yrotation Xrotation
				JOINT Head
				{
					OFFSET 14.000000 0.030878 0.000000
					CHANNELS 3 Zrotation Yrotation Xrotation
					End Site
					{
						OFFSET 17.000000 0.000000 0.000000
					}
				}
			}
			JOINT LeftShoulder
			{
				OFFSET 19.800000 3.700000 4.300000
				CHANNELS 3 Zrotation Yrotation Xrotation
				JOINT LeftArm
				{
					OFFSET 8.000000 0.000000 0.000000
					CHANNELS 3 Zrotation Yrotation Xrotation
					JOINT LeftForeArm
					{
						OFFSET 15.200000 0.000000 0.000000
						CHANNELS 3 Zrotation Yrotation Xrotation
						JOINT LeftHand
						{
							OFFSET 17.800000 0.000000 0.000000
							CHANNELS 3 Zrotation Yrotation Xrotation
							End Site
							{
								OFFSET 7.200000 0.000000 0.000000
							}
						}
					}
				}
			}
			JOINT RightShoulder
			{
				OFFSET 19.800000 3.700000 -4.300000
				CHANNELS 3 Zrotation Yrotation Xrotation
				JOINT RightArm
				{
					OFFSET 8.000000 0.000000 0.151654
					CHANNELS 3 Zrotation Yrotation Xrotation
					JOINT RightForeArm
					{
						OFFSET 15.200000 0.000000 0.000000
						CHANNELS 3 Zrotation Yrotation Xrotation
						JOINT RightHand
						{
							OFFSET 17.800000 0.000000 0.000000
							CHANNELS 3 Zrotation Yrotation Xrotation
							End Site
							{
								OFFSET 7.200000 0.000000 0.000000
							}
						}
					}
				}
			}
		}
	}
	JOINT LeftUpLeg
	{
		OFFSET 5.984250 -7.666000 4.788790
		CHANNELS 3 Zrotation Yrotation Xrotation
		JOINT LeftLeg
		{
			OFFSET 16.000000 0.000000 0.000000
			CHANNELS 3 Zrotation Yrotation Xrotation
			JOINT LeftFoot
			{
				OFFSET 18.000000 0.000000 0.000000
				CHANNELS 3 Zrotation Yrotation Xrotation
				End Site
				{
					OFFSET 0.000000 -10.800000 0.000000
				}
			}
		}
	}
	JOINT RightUpLeg
	{
		OFFSET 5.984250 -7.665980 -4.788790
		CHANNELS 3 Zrotation Yrotation Xrotation
		JOINT RightLeg
		{
			OFFSET 16.000000 0.000000 0.000000
			CHANNELS 3 Zrotation Yrotation Xrotation
			JOINT RightFoot
			{
				OFFSET 18.000000 0.000000 0.000000
				CHANNELS 3 Zrotation Yrotation Xrotation
				End Site
				{
					OFFSET 0.000000 -10.800000 0.000000
				}
			}
		}
	}
	JOINT Tail
	{
		OFFSET 6.836960 -0.722574 0.000000
		CHANNELS 3 Zrotation Yrotation Xrotation
		JOINT Tail1
		{
			OFFSET 12.000000 0.000000 0.000000
			CHANNELS 3 Zrotation Yrotation Xrotation
			End Site
			{
				OFFSET 12.000000 0.000000 0.000000
			}
		}
	}
}
MOTION
Frames: 13
Frame Time: 0.033333
-3670745.000000 -813890.875000 -1435911.875000 12.017330 -0.305710 12.928004 -144.066162 -12.739348 2.199230 -93.079964 -1.213618 -5.816978 14.608607 18.837585 1.995325 8.512277 -13.439443 -142.192978 -19.821779 2.433509 -173.731216 -18.722202 -30.805838 133.737961 -133.882904 -17.687061 165.269608 -160.331161 7.697280 -129.514648 -108.447868 62.403351 162.010956 -31.976843 -29.805191 137.729080 102.372299 -57.044331 -52.021557 125.073120 -25.930868 -66.640503 -131.054245 -40.085308 -5.403714 78.292603 -6.675127 103.583504 117.478279 -48.449940 -59.819641 -99.998070 2.296193 -40.173717 38.683739 38.831562 -0.209826 140.246506 -9.362412 -40.149731 -87.802254 3.674015 -101.133881 -7.146077 6.713217 -153.339386 
-3689055.250000 -821136.062500 -1438813.625000 9.480556 -2.411787 15.713102 -144.500443 -12.730003 2.443608 -92.651390 0.603698 -7.459323 14.027605 16.998205 1.960223 8.507267 -15.058166 -144.013199 -33.634808 1.275196 -162.255051 -10.282774 -30.341341 138.372620 -129.582367 -13.798627 163.432724 -158.838974 5.991915 -125.182144 -178.686279 79.595284 89.911499 -31.445940 -29.436525 141.115250 96.575851 -45.034641 -53.252552 126.272804 -27.445778 -69.963875 -129.358994 -40.693447 -5.609546 79.526886 -5.003827 105.016396 117.366318 -47.318256 -59.588570 -98.370979 0.997931 -37.242550 41.262173 38.779881 -6.051614 135.291992 -10.536630 -41.467983 -81.230209 -4.810422 -99.158325 -8.263398 7.320057 -150.582001 
-3714812.250000 -832206.187500 -1441857.750000 7.588301 -3.716329 18.624399 -144.822571 -12.666833 2.732909 -92.179939 2.162552 -8.825675 13.162686 15.100456 1.975182 8.684146 -16.796690 -145.294846 -43.310555 2.552664 -150.216354 -5.477523 -31.203772 142.276459 -126.568565 -9.622265 163.003906 -157.784775 4.054671 -122.375137 113.210320 60.184689 18.549679 -30.114927 -29.473381 143.941696 90.828903 -32.065712 -55.599449 127.232460 -29.430611 -74.065109 -128.841293 -41.498077 -5.295785 79.531067 -2.382582 104.694725 116.691833 -46.914410 -59.785755 -96.644920 -1.217827 -31.713366 41.100887 40.284912 -12.638145 130.977859 -11.648790 -42.576691 -75.366875 -14.832375 -97.751564 -9.614527 8.037542 -146.055389 
-3738473.250000 -841881.187500 -1444960.000000 6.701447 -4.641778 21.525768 -145.029800 -12.540650 3.054549 -91.787010 3.494565 -9.934074 12.034501 13.181299 1.976115 9.169636 -18.688705 -145.952545 -47.908287 4.848567 -138.245514 -3.013379 -32.356857 145.280731 -124.207886 -5.537445 163.500000 -157.068146 1.989685 -120.454872 104.018929 35.653824 4.401011 -28.197872 -29.900381 146.333893 86.346260 -19.684574 -59.150261 127.542038 -31.819933 -78.571381 -129.254227 -42.250515 -4.628293 78.561745 0.589599 103.137596 115.887169 -47.388729 -60.984623 -95.860733 -4.288262 -23.833981 38.692348 43.466713 -19.658693 127.376999 -12.628488 -43.600430 -70.727921 -25.537651 -96.988869 -10.990306 9.047211 -139.565079 
-3757755.000000 -854501.312500 -1447336.625000 6.279607 -6.038766 24.203823 -145.092560 -12.365911 3.401255 -91.586212 4.578370 -10.766660 10.843410 11.373177 1.885453 10.124760 -20.800600 -146.256927 -48.093361 7.024101 -125.790054 -1.319975 -33.805660 147.013397 -121.691277 -2.860764 164.527420 -156.572540 -0.264596 -118.145653 101.928207 16.516369 -4.004755 -25.781630 -30.940342 148.418503 84.317352 -9.043036 -62.688122 127.089035 -34.027225 -82.620636 -130.155319 -42.808418 -3.865396 77.188553 3.197886 101.032440 115.573860 -47.848831 -62.467793 -96.871948 -7.394847 -14.123274 36.148861 47.830486 -25.825544 124.006081 -13.653085 -44.729977 -67.131752 -35.050320 -96.523773 -11.722874 10.656196 -131.493546 
-3772045.750000 -866798.500000 -1450567.250000 6.461486 -7.916224 26.640306 -144.996582 -12.172803 3.763252 -91.607773 5.341239 -11.249764 9.654311 9.746503 1.652174 11.691818 -23.421871 -146.605255 -45.309677 8.571546 -113.775208 0.243603 -35.482716 147.202271 -118.940140 -2.134889 165.634995 -156.087265 -2.274718 -116.076706 101.867393 3.952725 -11.293818 -22.865053 -32.483982 150.119537 85.732498 -1.442471 -66.545792 125.892868 -34.727299 -84.651062 -131.338623 -43.022034 -3.004662 75.606468 5.382761 98.664688 115.843407 -48.116978 -64.153023 -101.142982 -9.761120 -2.649417 37.186321 54.511669 -29.537079 120.094238 -15.194831 -46.431793 -64.145393 -43.007050 -95.852043 -11.267284 12.902727 -122.190002 
-3785268.250000 -878804.625000 -1453651.625000 6.939198 -10.366467 28.517410 -144.729950 -11.996346 4.124995 -91.819489 5.713872 -11.323038 8.474010 8.294423 1.320768 14.131797 -26.449984 -147.183929 -40.783176 8.903615 -102.765381 2.163589 -37.693790 145.774902 -116.048927 -3.616060 166.513138 -155.532257 -3.947647 -115.026749 102.864456 -3.002176 -18.488363 -19.389490 -34.543331 151.111023 91.581726 2.509071 -72.120064 124.719223 -32.216064 -83.241806 -132.611435 -42.887344 -1.917377 73.989502 7.292541 96.223442 116.662971 -48.267334 -66.003441 -108.974785 -10.045530 9.023067 45.517239 63.960232 -27.790941 115.145332 -17.683750 -48.858585 -58.508018 -49.321045 -96.779053 -8.994067 15.518063 -111.444420 
-3802972.750000 -890901.000000 -1457083.375000 8.033084 -13.268672 30.089624 -144.284637 -11.856221 4.475588 -92.205162 5.680249 -10.997649 7.416405 6.952435 1.046383 17.054640 -29.597586 -147.636765 -35.408665 8.913558 -92.745033 3.954687 -40.098717 143.121887 -113.015144 -6.842886 167.271973 -155.123764 -5.847483 -114.360161 104.338943 -5.711919 -25.443911 -15.300648 -37.191887 151.239471 101.340935 4.210515 -79.920959 124.353050 -26.332474 -78.669708 -133.984222 -42.424961 -0.414657 72.731674 8.820439 94.007172 118.085930 -48.165390 -67.841553 -118.696152 -7.703462 19.257854 70.723877 73.762009 -10.202888 109.686073 -20.977457 -51.794006 -49.375854 -54.289600 -100.448326 -4.807223 18.059313 -98.412888 
-3821333.250000 -900554.812500 -1460715.375000 10.039062 -15.866998 31.817650 -143.666046 -11.771099 4.789988 -92.758476 5.281935 -10.352826 6.541819 5.779284 0.979631 19.954517 -32.357895 -147.166687 -30.926764 10.350314 -85.139351 7.022146 -42.811710 138.499451 -109.843727 -10.856188 168.043823 -155.022171 -8.443419 -113.736641 106.108147 -6.404496 -31.122459 -10.804782 -40.036446 150.329254 113.898994 5.914279 -89.247826 125.166786 -18.975233 -73.091484 -135.775131 -41.897766 1.655101 72.372910 9.083080 92.289818 120.139603 -47.940460 -70.019173 -129.602020 -3.482612 27.043768 138.053741 76.344315 47.771320 104.558426 -25.067682 -55.731693 -40.571106 -60.480427 -105.607208 -0.097253 19.947403 -82.336021 
-3836482.500000 -908399.875000 -1464504.125000 12.595225 -18.308510 34.400135 -142.875824 -11.738041 5.060923 -93.539589 4.567825 -9.520592 6.024211 4.968448 1.242860 22.309319 -34.145905 -145.164719 -27.273485 13.315797 -79.797028 11.677244 -45.504089 131.728333 -106.247070 -15.239634 168.890274 -155.224915 -11.815406 -113.141403 107.769897 -6.192252 -35.237564 -5.879360 -43.188274 148.003448 126.719673 9.427274 -98.452972 126.642570 -11.687762 -67.455009 -137.884964 -41.673698 4.185603 73.094147 7.818074 90.965942 122.819351 -47.670799 -72.646431 -140.858307 1.503881 32.377014 179.875656 64.751106 79.520714 100.383636 -29.799530 -60.811405 -31.541552 -68.247597 -113.443375 4.130903 20.575287 -62.817074 
-3843715.750000 -912781.500000 -1467722.375000 11.782822 -14.106857 35.142162 -134.277374 -13.528764 0.767362 -86.551346 0.707009 -6.832507 -1.331836 11.524194 -5.009114 16.645872 -26.313501 -134.978210 -13.904522 17.385288 -66.611588 13.401396 -58.460995 127.020218 -94.135315 -11.111534 168.392700 -144.702393 -13.476359 -118.531898 104.725540 1.767491 -34.036907 0.782035 -38.951397 151.881958 138.654617 3.430623 -111.252953 131.464005 6.591925 -57.411507 -145.844894 -33.309452 3.796673 64.461449 5.018780 89.739075 131.223251 -43.673336 -87.123596 -159.562119 1.390426 38.370178 -173.403870 67.448105 81.440102 91.409782 -38.524960 -70.510887 -26.954140 -78.686134 -118.612556 8.983345 20.135395 -38.419460 
-3851713.500000 -919334.125000 -1469736.125000 14.196496 -18.636154 49.139416 -133.699310 -13.771478 1.076712 -88.036827 -1.298527 -6.561734 -1.293148 11.300500 -4.198181 18.703503 -26.536171 -133.615814 -8.915491 20.903156 -63.693233 19.589237 -61.125565 116.563972 -87.775887 -31.349936 167.790070 -145.726898 -16.562386 -123.551353 102.958565 4.069908 -35.480839 5.198238 -43.430321 148.721054 147.505203 8.439230 -119.865044 136.941895 14.217416 -44.670494 -149.633057 -35.540722 13.050756 68.261719 0.707907 90.040115 132.743454 -42.631516 -86.981140 -167.824341 4.460057 40.436977 178.520264 64.857559 76.578445 88.375687 -42.631386 -74.930222 47.682732 -81.577637 164.728287 6.196682 17.276550 -19.686193 
-3866739.750000 -922812.750000 -1472686.750000 19.543509 -24.431299 53.294559 -132.589600 -14.213813 0.603257 -89.764229 -3.172163 -6.129668 -1.376820 11.173841 -4.088271 20.550863 -27.005899 -131.090073 -3.182934 23.050232 -60.864544 21.761000 -63.438808 109.085411 -83.558586 -34.960178 168.436417 -145.083801 -21.034081 -129.373184 100.773590 3.576724 -31.717361 10.661678 -48.536732 144.358475 154.765503 12.512331 -128.644897 145.437225 20.613377 -29.830303 -152.547302 -37.384663 18.501768 73.492470 -4.602865 90.144562 133.204712 -41.895294 -84.936958 -174.305695 5.981842 41.037144 156.457382 66.718315 63.802124 96.757263 -42.977192 -88.416695 97.561028 -80.819275 111.860291 4.746722 16.934034 -3.077633 
